<svg xmlns="http://www.w3.org/2000/svg" version="1.1" xmlns:xlink="http://www.w3.org/1999/xlink" xmlns:svgjs="http://svgjs.com/svgjs" width="1440" height="1440" preserveAspectRatio="none" viewBox="0 0 1440 1440"><g mask="url(&quot;#SvgjsMask2142&quot;)" fill="none"><rect width="1440" height="1440" x="0" y="0" fill="url(#SvgjsLinearGradient2143)"></rect><g transform="translate(0, -28.8)" stroke-linecap="round" stroke="url(#SvgjsLinearGradient2144)"><path d="M190 599.13 L190 659.13" stroke-width="15"></path><path d="M190 681.63 L190 786.63" stroke-width="15"></path><path d="M190 809.13 L190 840.87" stroke-width="15"></path><path d="M210 453.63 L210 588.63" stroke-width="15"></path><path d="M210 611.13 L210 986.37" stroke-width="15"></path><path d="M230 584.49 L230 614.49" stroke-width="15"></path><path d="M230 636.99 L230 855.51" stroke-width="15"></path><path d="M250 277.38 L250 322.38" stroke-width="15"></path><path d="M250 344.88 L250 1162.63" stroke-width="15"></path><path d="M270 391.61 L270 1048.39" stroke-width="15"></path><path d="M290 494.44 L290 719.44" stroke-width="15"></path><path d="M290 741.94 L290 945.57" stroke-width="15"></path><path d="M310 256.38 L310 301.38" stroke-width="15"></path><path d="M310 323.88 L310 518.88" stroke-width="15"></path><path d="M310 541.38 L310 1183.63" stroke-width="15"></path><path d="M330 574.39 L330 709.39" stroke-width="15"></path><path d="M330 731.89 L330 746.89" stroke-width="15"></path><path d="M330 769.39 L330 865.61" stroke-width="15"></path><path d="M350 379.71 L350 424.71" stroke-width="15"></path><path d="M350 447.21 L350 1060.29" stroke-width="15"></path><path d="M370 529.63 L370 784.63" stroke-width="15"></path><path d="M370 807.13 L370 910.37" stroke-width="15"></path><path d="M390 662.04 L390 707.04" stroke-width="15"></path><path d="M390 729.54 L390 777.96" stroke-width="15"></path><path d="M410 612.91 L410 732.91" stroke-width="15"></path><path d="M410 755.41 L410 770.41" stroke-width="15"></path><path d="M410 792.91 L410 827.09" stroke-width="15"></path><path d="M430 347 L430 542" stroke-width="15"></path><path d="M430 564.5 L430 714.5" stroke-width="15"></path><path d="M430 737 L430 1093.01" stroke-width="15"></path><path d="M450 422.63 L450 662.63" stroke-width="15"></path><path d="M450 685.13 L450 730.13" stroke-width="15"></path><path d="M450 752.63 L450 1017.3699999999999" stroke-width="15"></path><path d="M470 361.63 L470 406.63" stroke-width="15"></path><path d="M470 429.13 L470 579.13" stroke-width="15"></path><path d="M470 601.63 L470 1078.37" stroke-width="15"></path><path d="M490 390.87 L490 795.87" stroke-width="15"></path><path d="M490 818.37 L490 848.37" stroke-width="15"></path><path d="M490 870.87 L490 1049.13" stroke-width="15"></path><path d="M510 452.96 L510 987.04" stroke-width="15"></path><path d="M530 409.15 L530 814.15" stroke-width="15"></path><path d="M530 836.65 L530 1030.85" stroke-width="15"></path><path d="M550 515.63 L550 620.63" stroke-width="15"></path><path d="M550 643.13 L550 868.13" stroke-width="15"></path><path d="M550 890.63 L550 924.38" stroke-width="15"></path><path d="M570 238.9 L570 718.9" stroke-width="15"></path><path d="M570 741.4 L570 1071.4" stroke-width="15"></path><path d="M570 1093.9 L570 1201.1" stroke-width="15"></path><path d="M590 246.92 L590 771.92" stroke-width="15"></path><path d="M590 794.42 L590 1193.09" stroke-width="15"></path><path d="M610 517.65 L610 712.65" stroke-width="15"></path><path d="M610 735.15 L610 922.35" stroke-width="15"></path><path d="M630 218.09 L630 788.09" stroke-width="15"></path><path d="M630 810.59 L630 990.59" stroke-width="15"></path><path d="M630 1013.09 L630 1221.91" stroke-width="15"></path><path d="M650 593.97 L650 698.97" stroke-width="15"></path><path d="M650 721.47 L650 766.47" stroke-width="15"></path><path d="M650 788.97 L650 846.03" stroke-width="15"></path><path d="M670 474.38 L670 519.38" stroke-width="15"></path><path d="M670 541.88 L670 676.88" stroke-width="15"></path><path d="M670 699.38 L670 965.63" stroke-width="15"></path><path d="M690 527.13 L690 912.87" stroke-width="15"></path><path d="M710 590.58 L710 710.58" stroke-width="15"></path><path d="M710 733.08 L710 849.42" stroke-width="15"></path><path d="M730 222.08 L730 1217.92" stroke-width="15"></path><path d="M750 424.81 L750 604.81" stroke-width="15"></path><path d="M750 627.31 L750 672.31" stroke-width="15"></path><path d="M750 694.81 L750 1015.19" stroke-width="15"></path><path d="M770 638.14 L770 683.14" stroke-width="15"></path><path d="M770 705.64 L770 720.64" stroke-width="15"></path><path d="M770 743.14 L770 801.86" stroke-width="15"></path><path d="M790 668.79 L790 683.79" stroke-width="15"></path><path d="M790 706.29 L790 721.29" stroke-width="15"></path><path d="M790 743.79 L790 771.21" stroke-width="15"></path><path d="M810 313.48 L810 448.48" stroke-width="15"></path><path d="M810 470.98 L810 1025.98" stroke-width="15"></path><path d="M810 1048.48 L810 1126.53" stroke-width="15"></path><path d="M830 572.42 L830 662.42" stroke-width="15"></path><path d="M830 684.92 L830 867.58" stroke-width="15"></path><path d="M850 505.26 L850 805.26" stroke-width="15"></path><path d="M850 827.76 L850 934.74" stroke-width="15"></path><path d="M870 613.92 L870 763.92" stroke-width="15"></path><path d="M870 786.42 L870 826.08" stroke-width="15"></path><path d="M890 437.38 L890 617.38" stroke-width="15"></path><path d="M890 639.88 L890 924.88" stroke-width="15"></path><path d="M890 947.38 L890 1002.62" stroke-width="15"></path><path d="M910 522.5 L910 642.5" stroke-width="15"></path><path d="M910 665 L910 917.5" stroke-width="15"></path><path d="M930 663.71 L930 678.71" stroke-width="15"></path><path d="M930 701.21 L930 716.21" stroke-width="15"></path><path d="M930 738.71 L930 776.29" stroke-width="15"></path><path d="M950 217.71 L950 247.71" stroke-width="15"></path><path d="M950 270.21000000000004 L950 870.21" stroke-width="15"></path><path d="M950 892.71 L950 1222.29" stroke-width="15"></path><path d="M970 520.51 L970 565.51" stroke-width="15"></path><path d="M970 588.01 L970 858.01" stroke-width="15"></path><path d="M970 880.51 L970 919.49" stroke-width="15"></path><path d="M990 403.62 L990 928.62" stroke-width="15"></path><path d="M990 951.12 L990 1036.38" stroke-width="15"></path><path d="M1010 640.72 L1010 799.28" stroke-width="15"></path><path d="M1030 224.5 L1030 869.5" stroke-width="15"></path><path d="M1030 892 L1030 1102" stroke-width="15"></path><path d="M1030 1124.5 L1030 1215.49" stroke-width="15"></path><path d="M1050 325.04 L1050 850.04" stroke-width="15"></path><path d="M1050 872.54 L1050 947.54" stroke-width="15"></path><path d="M1050 970.04 L1050 1114.96" stroke-width="15"></path><path d="M1070 652.85 L1070 787.15" stroke-width="15"></path><path d="M1090 287.24 L1090 797.24" stroke-width="15"></path><path d="M1090 819.74 L1090 864.74" stroke-width="15"></path><path d="M1090 887.24 L1090 1152.76" stroke-width="15"></path><path d="M1110 608 L1110 698" stroke-width="15"></path><path d="M1110 720.5 L1110 750.5" stroke-width="15"></path><path d="M1110 773 L1110 832" stroke-width="15"></path><path d="M1130 206.8 L1130 791.8" stroke-width="15"></path><path d="M1130 814.3 L1130 1009.3" stroke-width="15"></path><path d="M1130 1031.8 L1130 1233.2" stroke-width="15"></path><path d="M1150 317.25 L1150 422.25" stroke-width="15"></path><path d="M1150 444.75 L1150 564.75" stroke-width="15"></path><path d="M1150 587.25 L1150 1122.76" stroke-width="15"></path><path d="M1170 311.35 L1170 431.35" stroke-width="15"></path><path d="M1170 453.85 L1170 933.85" stroke-width="15"></path><path d="M1170 956.35 L1170 1128.65" stroke-width="15"></path><path d="M1190 671 L1190 686" stroke-width="15"></path><path d="M1190 708.5 L1190 723.5" stroke-width="15"></path><path d="M1190 746 L1190 769" stroke-width="15"></path><path d="M1210 433.9 L1210 718.9" stroke-width="15"></path><path d="M1210 741.4 L1210 1006.1" stroke-width="15"></path><path d="M1230 378.85 L1230 723.85" stroke-width="15"></path><path d="M1230 746.35 L1230 791.35" stroke-width="15"></path><path d="M1230 813.85 L1230 1061.15" stroke-width="15"></path><path d="M1250 642.94 L1250 657.94" stroke-width="15"></path><path d="M1250 680.44 L1250 695.44" stroke-width="15"></path><path d="M1250 717.94 L1250 797.06" stroke-width="15"></path></g></g><defs><mask id="SvgjsMask2142"><rect width="1440" height="1440" fill="#ffffff"></rect></mask><linearGradient x1="0%" y1="0%" x2="100%" y2="100%" gradientUnits="userSpaceOnUse" id="SvgjsLinearGradient2143"><stop stop-color="#0e2a47" offset="0"></stop><stop stop-color="rgba(18, 24, 31, 1)" offset="1"></stop></linearGradient><linearGradient x1="180" y1="720" x2="1260" y2="720" gradientUnits="userSpaceOnUse" id="SvgjsLinearGradient2144"><stop stop-color="#3a7cc3" offset="0"></stop><stop stop-color="rgba(200, 17, 221, 1)" offset="1"></stop></linearGradient></defs></svg>